<svg xmlns="http://www.w3.org/2000/svg" viewBox="0 0 64 64">
    <symbol id="aceptar" viewBox="0 0 24 24">
        <g>
            <path d="M8.35588 16.0296L3.61455 11.2882L2 12.8914L8.35588 19.2473L22 5.60318L20.3968 4L8.35588 16.0296Z"/>
        </g>
    </symbol>    
    <symbol id="admin" viewBox="0 0 24 24">        
        <g>
            <path d="M9.78669 9.87332C8.89507 9.87332 8.02349 9.60884 7.28223 9.11335C6.54097 8.61785 5.96334 7.91361 5.62244 7.08974C5.28154 6.26586 5.19268 5.35938 5.36711 4.48499C5.54155 3.6106 5.97143 2.8076 6.60236 2.1776C7.2333 1.5476 8.03693 1.11891 8.91158 0.94577C9.78623 0.772633 10.6926 0.862832 11.5159 1.20495C12.3393 1.54707 13.0427 2.12574 13.5371 2.86774C14.0315 3.60973 14.2947 4.4817 14.2934 5.37332C14.2898 6.56687 13.8137 7.71042 12.9691 8.55376C12.1245 9.3971 10.9802 9.87156 9.78669 9.87332V9.87332ZM9.78669 2.19999C9.15907 2.19999 8.54553 2.3861 8.02368 2.73479C7.50183 3.08348 7.0951 3.57909 6.85492 4.15894C6.61473 4.73879 6.55189 5.37684 6.67433 5.99241C6.79678 6.60797 7.09901 7.17341 7.54281 7.61721C7.98661 8.061 8.55204 8.36324 9.16761 8.48568C9.78317 8.60812 10.4212 8.54528 11.0011 8.3051C11.5809 8.06492 12.0765 7.65818 12.4252 7.13633C12.7739 6.61448 12.96 6.00095 12.96 5.37332C12.96 4.5317 12.6257 3.72455 12.0306 3.12944C11.4355 2.53432 10.6283 2.19999 9.78669 2.19999V2.19999Z"/>
            <path d="M10.9466 21.12C10.8009 20.9742 10.6885 20.7986 10.6172 20.6053C10.5458 20.4119 10.5172 20.2054 10.5333 20H2.66665V16.1466C3.61192 15.138 4.75845 14.3391 6.03204 13.8016C7.30563 13.2642 8.67788 13.0002 10.06 13.0266H10.54C10.5094 12.8031 10.5308 12.5756 10.6024 12.3616C10.6741 12.1477 10.7942 11.9532 10.9533 11.7933L11.0333 11.72C10.72 11.72 10.3666 11.68 10.06 11.68C8.43358 11.6414 6.81893 11.9646 5.33276 12.6264C3.8466 13.2882 2.52606 14.272 1.46665 15.5066C1.3801 15.622 1.33331 15.7624 1.33331 15.9066V20C1.33331 20.3536 1.47379 20.6927 1.72384 20.9428C1.97389 21.1928 2.31302 21.3333 2.66665 21.3333H11.1333L10.9466 21.12Z"/>
            <path d="M22.4533 15.5467L21.12 15.1401C21.0247 14.8139 20.8951 14.4988 20.7333 14.2001L21.4 12.9601C21.4217 12.9105 21.4269 12.8552 21.4149 12.8024C21.4029 12.7496 21.3743 12.7021 21.3333 12.6667L20.3666 11.7001C20.3301 11.6605 20.2813 11.6344 20.2281 11.6259C20.1748 11.6174 20.1203 11.6271 20.0733 11.6534L18.8466 12.3201C18.5446 12.1503 18.2249 12.0139 17.8933 11.9134L17.4866 10.5801C17.4694 10.531 17.4366 10.4888 17.3934 10.46C17.3501 10.4311 17.2986 10.4171 17.2466 10.4201H15.88C15.8275 10.4195 15.7762 10.4361 15.7341 10.4674C15.6919 10.4987 15.6612 10.543 15.6466 10.5934L15.24 11.9267C14.9061 12.0239 14.5841 12.158 14.28 12.3267L13.0666 11.6601C13.0206 11.6343 12.9672 11.6249 12.9152 11.6334C12.8631 11.6418 12.8154 11.6677 12.78 11.7067L11.7933 12.6667C11.7567 12.7053 11.7332 12.7543 11.726 12.8069C11.7188 12.8596 11.7284 12.9131 11.7533 12.9601L12.42 14.1734C12.2436 14.4739 12.1027 14.7938 12 15.1267L10.6666 15.5267C10.6162 15.5413 10.5719 15.572 10.5406 15.6142C10.5093 15.6563 10.4927 15.7076 10.4933 15.7601V17.1267C10.4972 17.1749 10.516 17.2206 10.5471 17.2576C10.5781 17.2947 10.6199 17.3211 10.6666 17.3334L12 17.7401C12.0985 18.0671 12.2326 18.3823 12.4 18.6801L11.7333 19.9534C11.7079 19.999 11.698 20.0517 11.7052 20.1034C11.7124 20.1552 11.7363 20.2031 11.7733 20.2401L12.74 21.2067C12.7777 21.2444 12.8264 21.2692 12.8791 21.2776C12.9317 21.2859 12.9857 21.2775 13.0333 21.2534L14.28 20.5867C14.5767 20.7463 14.8895 20.8737 15.2133 20.9667L15.6133 22.3001C15.6297 22.3494 15.6609 22.3925 15.7026 22.4235C15.7444 22.4545 15.7947 22.4719 15.8466 22.4734H17.2133C17.2655 22.4729 17.3163 22.4559 17.3582 22.4247C17.4001 22.3936 17.4311 22.3499 17.4466 22.3001L17.8533 20.9334C18.1728 20.8403 18.4812 20.7129 18.7733 20.5534L20.0333 21.2201C20.0796 21.2447 20.1327 21.2534 20.1845 21.245C20.2363 21.2366 20.2839 21.2114 20.32 21.1734L21.3333 20.2667C21.3605 20.2276 21.3752 20.1811 21.3752 20.1334C21.3752 20.0857 21.3605 20.0392 21.3333 20.0001L20.6666 18.7467C20.8285 18.4526 20.9581 18.142 21.0533 17.8201L22.3866 17.4134C22.4371 17.3988 22.4813 17.3681 22.5126 17.326C22.544 17.2838 22.5606 17.2326 22.56 17.1801V15.7801C22.5661 15.7351 22.5593 15.6892 22.5404 15.6479C22.5216 15.6066 22.4913 15.5715 22.4533 15.5467V15.5467ZM16.5666 18.6667C16.1257 18.668 15.6943 18.5384 15.3271 18.2942C14.9599 18.0501 14.6734 17.7024 14.5041 17.2953C14.3347 16.8881 14.2901 16.4399 14.3758 16.0073C14.4615 15.5748 14.6737 15.1774 14.9855 14.8656C15.2973 14.5538 15.6947 14.3416 16.1272 14.2559C16.5598 14.1702 17.008 14.2148 17.4152 14.3842C17.8223 14.5535 18.17 14.84 18.4142 15.2072C18.6583 15.5743 18.788 16.0058 18.7866 16.4467C18.7849 17.035 18.5504 17.5986 18.1345 18.0146C17.7185 18.4305 17.1549 18.665 16.5666 18.6667V18.6667Z"/>
        </g>
    </symbol>
    <symbol id="advertencia" viewBox="0 0 24 24">        
        <g>
            <path d="M11 15H13V17H11V15ZM11 7H13V13H11V7ZM11.99 2C6.47 2 2 6.48 2 12C2 17.52 6.47 22 11.99 22C17.52 22 22 17.52 22 12C22 6.48 17.52 2 11.99 2ZM12 20C7.58 20 4 16.42 4 12C4 7.58 7.58 4 12 4C16.42 4 20 7.58 20 12C20 16.42 16.42 20 12 20Z"/>
        </g>
    </symbol>
    <symbol id="aulas" viewBox="0 0 24 24">        
        <g>
            <path d="M21 9.61939C21.2652 9.61939 21.5196 9.51905 21.7071 9.34043C21.8946 9.16182 22 8.91957 22 8.66697V5.80971C22 5.60986 21.9339 5.41509 21.8111 5.25303C21.6884 5.09096 21.5151 4.96983 21.316 4.90682L12.316 2.04955C12.1108 1.98462 11.8892 1.98462 11.684 2.04955L2.684 4.90682C2.48487 4.96983 2.31164 5.09096 2.18886 5.25303C2.06609 5.41509 2.00001 5.60986 2 5.80971V8.66697C2 8.91957 2.10536 9.16182 2.29289 9.34043C2.48043 9.51905 2.73478 9.61939 3 9.61939H4V16.4616C3.41669 16.6573 2.91128 17.0201 2.55318 17.5003C2.19507 17.9806 2.00184 18.5546 2 19.1436V21.0484C2 21.301 2.10536 21.5433 2.29289 21.7219C2.48043 21.9005 2.73478 22.0009 3 22.0009H21C21.2652 22.0009 21.5196 21.9005 21.7071 21.7219C21.8946 21.5433 22 21.301 22 21.0484V19.1436C21.9982 18.5546 21.8049 17.9806 21.4468 17.5003C21.0887 17.0201 20.5833 16.6573 20 16.4616V9.61939H21ZM20 20.096H4V19.1436C4.00026 18.8911 4.10571 18.649 4.29319 18.4704C4.48066 18.2919 4.73486 18.1914 5 18.1912H19C19.2651 18.1914 19.5193 18.2919 19.7068 18.4704C19.8943 18.649 19.9997 18.8911 20 19.1436V20.096ZM6 16.2863V9.61939H8V16.2863H6ZM10 16.2863V9.61939H14V16.2863H10ZM16 16.2863V9.61939H18V16.2863H16ZM4 7.71455V6.49545L12 3.9563L20 6.49641V7.71455H4Z"/>
        </g>
    </symbol>
    <symbol id="cargando" viewBox="0 0 24 24">        
        <g>
            <path d="M6 2V8H6.01L6 8.01L10 12L6 16L6.01 16.01H6V22H18V16.01H17.99L18 16L14 12L18 8.01L17.99 8H18V2H6ZM16 16.5V20H8V16.5L12 12.5L16 16.5ZM12 11.5L8 7.5V4H16V7.5L12 11.5Z"/>
        </g>
    </symbol>
    <symbol id="carreras" viewBox="0 0 24 24">        
        <g>
            <path fill-rule="evenodd" clip-rule="evenodd" d="M14 6V4H10V6H14ZM4 8V19H20V8H4ZM20 6C21.11 6 22 6.89 22 8V19C22 20.11 21.11 21 20 21H4C2.89 21 2 20.11 2 19L2.01 8C2.01 6.89 2.89 6 4 6H8V4C8 2.89 8.89 2 10 2H14C15.11 2 16 2.89 16 4V6H20Z"/>
        </g>
    </symbol>
    <symbol id="buscar" viewBox="0 0 24 24">        
        <g>
            <path d="M15.5 14H14.71L14.43 13.73C15.41 12.59 16 11.11 16 9.5C16 5.91 13.09 3 9.5 3C5.91 3 3 5.91 3 9.5C3 13.09 5.91 16 9.5 16C11.11 16 12.59 15.41 13.73 14.43L14 14.71V15.5L19 20.49L20.49 19L15.5 14V14ZM9.5 14C7.01 14 5 11.99 5 9.5C5 7.01 7.01 5 9.5 5C11.99 5 14 7.01 14 9.5C14 11.99 11.99 14 9.5 14Z"/>
        </g>
    </symbol>
    <symbol id="contraseña" viewBox="0 0 24 24">        
        <g>
            <path d="M11.619 2C8.45351 2 5.90476 4.54875 5.90476 7.71429V8.66667C4.86375 8.66667 4 9.53042 4 10.5714V20.0952C4 21.1363 4.86375 22 5.90476 22H17.3333C18.3743 22 19.2381 21.1363 19.2381 20.0952V10.5714C19.2381 9.53042 18.3743 8.66667 17.3333 8.66667V7.71429C17.3333 4.54875 14.7846 2 11.619 2ZM11.619 3.90476C13.7868 3.90476 15.4286 5.54649 15.4286 7.71429V8.66667H7.80952V7.71429C7.80952 5.54649 9.45125 3.90476 11.619 3.90476ZM5.90476 10.5714H17.3333V20.0952H5.90476V10.5714ZM11.619 13.4286C10.5714 13.4286 9.71429 14.2857 9.71429 15.3333C9.71429 16.381 10.5714 17.2381 11.619 17.2381C12.6667 17.2381 13.5238 16.381 13.5238 15.3333C13.5238 14.2857 12.6667 13.4286 11.619 13.4286Z"/>
        </g>
    </symbol>
    <symbol id="editar" viewBox="0 0 24 24">        
        <g>
            <path d="M17.1688 5C16.9667 5 16.7646 5.07734 16.6106 5.23129L15.0317 6.81021L13.9154 7.92656L5 16.8419V19.9998H8.15785L19.7685 8.38914C20.0772 8.08046 20.0772 7.58068 19.7685 7.27279L17.727 5.23129C17.573 5.07734 17.3709 5 17.1688 5ZM17.1688 6.90581L18.094 7.83096L17.0732 8.85171L16.1481 7.92656L17.1688 6.90581ZM15.0317 9.04291L15.9569 9.96806L7.50407 18.4209H6.57892V17.4957L15.0317 9.04291Z"/>
        </g>
    </symbol>
    <symbol id="cancelar-eliminar" viewBox="0 0 24 24">
        <g>
            <path d="M20 6.51071L18.4893 5L12.5 10.9893L6.51071 5L5 6.51071L10.9893 12.5L5 18.4893L6.51071 20L12.5 14.0107L18.4893 20L20 18.4893L14.0107 12.5L20 6.51071Z"/>
        </g>
    </symbol>
    <symbol id="error" viewBox="0 0 24 24">
        <g>
            <path d="M14.59 8L12 10.59L9.41 8L8 9.41L10.59 12L8 14.59L9.41 16L12 13.41L14.59 16L16 14.59L13.41 12L16 9.41L14.59 8ZM12 2C6.47 2 2 6.47 2 12C2 17.53 6.47 22 12 22C17.53 22 22 17.53 22 12C22 6.47 17.53 2 12 2ZM12 20C7.59 20 4 16.41 4 12C4 7.59 7.59 4 12 4C16.41 4 20 7.59 20 12C20 16.41 16.41 20 12 20Z"/>
        </g>
    </symbol>
    <symbol id="estudiantes" viewBox="0 0 24 24">
        <g>
            <path d="M17.25 16.4365L12 19.3896L6.75 16.4365V13.3164L5.25 12.483V17.3137L12 21.1106L18.75 17.3137V12.483L17.25 13.3164V16.4365V16.4365Z"/>
            <path d="M12 2.15515L1.5 7.59959V8.89962L12 14.7328L21 9.73296V13.875H22.5V7.59959L12 2.15515ZM19.5 8.85035L18 9.68365L12 13.0172L6 9.68365L4.5 8.85035L3.46036 8.27276L12 3.84481L20.5396 8.27276L19.5 8.85035Z"/>
        </g>
    </symbol>
    <symbol id="cerrar-sesion" viewBox="0 0 24 24">
        <g>
            <path d="M10.09 15.59L11.5 17L16.5 12L11.5 7L10.09 8.41L12.67 11H3V13H12.67L10.09 15.59ZM19 3H5C3.89 3 3 3.9 3 5V9H5V5H19V19H5V15H3V19C3 20.1 3.89 21 5 21H19C20.1 21 21 20.1 21 19V5C21 3.9 20.1 3 19 3Z"/>
        </g>
    </symbol>
    <symbol id="exito" viewBox="0 0 24 24">
        <g>
            <path d="M16.59 7.58L10 14.17L6.41 10.59L5 12L10 17L18 9L16.59 7.58ZM12 2C6.48 2 2 6.48 2 12C2 17.52 6.48 22 12 22C17.52 22 22 17.52 22 12C22 6.48 17.52 2 12 2ZM12 20C7.58 20 4 16.42 4 12C4 7.58 7.58 4 12 4C16.42 4 20 7.58 20 12C20 16.42 16.42 20 12 20Z"/>
        </g>
    </symbol>
    <symbol id="flecha-abajo" viewBox="0 0 24 24">
        <g>
            <path d="M7.41 8.58997L12 13.17L16.59 8.58997L18 9.99997L12 16L6 9.99997L7.41 8.58997Z"/>
        </g>
    </symbol>
    <symbol id="flecha-arriba" viewBox="0 0 24 24">
        <g>
            <path d="M7.41 15.41L12 10.83L16.59 15.41L18 14L12 8L6 14L7.41 15.41Z"/>
        </g>
    </symbol>
    <symbol id="info" viewBox="0 0 24 24">        
        <g>
            <path d="M11 18H13V16H11V18ZM12 2C6.48 2 2 6.48 2 12C2 17.52 6.48 22 12 22C17.52 22 22 17.52 22 12C22 6.48 17.52 2 12 2ZM12 20C7.59 20 4 16.41 4 12C4 7.59 7.59 4 12 4C16.41 4 20 7.59 20 12C20 16.41 16.41 20 12 20ZM12 6C9.79 6 8 7.79 8 10H10C10 8.9 10.9 8 12 8C13.1 8 14 8.9 14 10C14 12 11 11.75 11 15H13C13 12.75 16 12.5 16 10C16 7.79 14.21 6 12 6Z"/>
        </g>
    </symbol>
    <symbol id="correo" viewBox="0 0 24 24">        
        <g>
            <path d="M20 4H4C2.9 4 2.01 4.9 2.01 6L2 18C2 19.1 2.9 20 4 20H20C21.1 20 22 19.1 22 18V6C22 4.9 21.1 4 20 4ZM20 18H4V8L12 13L20 8V18ZM12 11L4 6H20L12 11Z"/>
        </g>
    </symbol>
    <symbol id="materias" viewBox="0 0 24 24">        
        <g>
            <path d="M7 2C5.35503 2 4 3.35503 4 5V19C4 20.645 5.35503 22 7 22H20V20H7C6.43497 20 6 19.565 6 19C6 18.435 6.43497 18 7 18H20V16V2H16H10H7ZM7 4H10V12.123L11.5742 11.0195L13 10.0176L16 12.123V4H18V16H7C6.64816 16 6.31489 16.0739 6 16.1875V5C6 4.43497 6.43497 4 7 4ZM12 4H14V8.27734L13 7.57617L12 8.27734V4Z"/>
        </g>
    </symbol>
    <symbol id="menu" viewBox="0 0 24 24">        
        <g>
            <path d="M3 18H21V16H3V18ZM3 13H21V11H3V13ZM3 6V8H21V6H3Z"/>
        </g>
    </symbol>
    <symbol id="usuario" viewBox="0 0 24 24">        
        <g>
            <path d="M9 11.75C8.31 11.75 7.75 12.31 7.75 13C7.75 13.69 8.31 14.25 9 14.25C9.69 14.25 10.25 13.69 10.25 13C10.25 12.31 9.69 11.75 9 11.75ZM15 11.75C14.31 11.75 13.75 12.31 13.75 13C13.75 13.69 14.31 14.25 15 14.25C15.69 14.25 16.25 13.69 16.25 13C16.25 12.31 15.69 11.75 15 11.75ZM12 2C6.48 2 2 6.48 2 12C2 17.52 6.48 22 12 22C17.52 22 22 17.52 22 12C22 6.48 17.52 2 12 2ZM12 20C7.59 20 4 16.41 4 12C4 11.71 4.02 11.42 4.05 11.14C6.41 10.09 8.28 8.16 9.26 5.77C11.07 8.33 14.05 10 17.42 10C18.2 10 18.95 9.91 19.67 9.74C19.88 10.45 20 11.21 20 12C20 16.41 16.41 20 12 20Z"/>
        </g>
    </symbol>
    <symbol id="nuevo" viewBox="0 0 24 24">        
        <g>
            <path d="M19 13H13V19H11V13H5V11H11V5H13V11H19V13Z"/>
        </g>
    </symbol>    
    <symbol id="profesores" viewBox="0 0 24 24">        
        <g>
            <path d="M16.5 13C15.3 13 13.43 13.34 12 14C10.57 13.33 8.7 13 7.5 13C5.33 13 1 14.08 1 16.25V19H23V16.25C23 14.08 18.67 13 16.5 13ZM12.5 17.5H2.5V16.25C2.5 15.71 5.06 14.5 7.5 14.5C9.94 14.5 12.5 15.71 12.5 16.25V17.5ZM21.5 17.5H14V16.25C14 15.79 13.8 15.39 13.48 15.03C14.36 14.73 15.44 14.5 16.5 14.5C18.94 14.5 21.5 15.71 21.5 16.25V17.5ZM7.5 12C9.43 12 11 10.43 11 8.5C11 6.57 9.43 5 7.5 5C5.57 5 4 6.57 4 8.5C4 10.43 5.57 12 7.5 12ZM7.5 6.5C8.6 6.5 9.5 7.4 9.5 8.5C9.5 9.6 8.6 10.5 7.5 10.5C6.4 10.5 5.5 9.6 5.5 8.5C5.5 7.4 6.4 6.5 7.5 6.5ZM16.5 12C18.43 12 20 10.43 20 8.5C20 6.57 18.43 5 16.5 5C14.57 5 13 6.57 13 8.5C13 10.43 14.57 12 16.5 12ZM16.5 6.5C17.6 6.5 18.5 7.4 18.5 8.5C18.5 9.6 17.6 10.5 16.5 10.5C15.4 10.5 14.5 9.6 14.5 8.5C14.5 7.4 15.4 6.5 16.5 6.5Z"/>
        </g>
    </symbol>
    <symbol id="pagina-final" viewBox="0 0 24 24">
        <g>
            <path d="M5.59003 7.41L10.18 12L5.59003 16.59L7.00003 18L13 12L7.00003 6L5.59003 7.41ZM16 6H18V18H16V6Z"/>
        </g>
    </symbol>
    <symbol id="pagina-inicial" viewBox="0 0 24 24">
        <g>
            <path d="M18.41 16.59L13.82 12L18.41 7.41L17 6L11 12L17 18L18.41 16.59ZM6 6H8V18H6V6Z"/>
        </g>
    </symbol>
    <symbol id="pagina-anterior" viewBox="0 0 24 24">
        <g>
            <path d="M15.41 16.59L10.83 12L15.41 7.41L14 6L8 12L14 18L15.41 16.59Z"/>
        </g>
    </symbol>
    <symbol id="pagina-siguiente" viewBox="0 0 24 24">
        <g>
            <path d="M8.59003 16.59L13.17 12L8.59003 7.41L10 6L16 12L10 18L8.59003 16.59Z"/>
        </g>
    </symbol>
    <symbol id="texto" viewBox="0 0 24 24">
        <g>
            <path d="M2.5 4V7H7.5V19H10.5V7H15.5V4H2.5ZM21.5 9H12.5V12H15.5V19H18.5V12H21.5V9Z"/>
        </g>
    </symbol>
    <symbol id="telefono" viewBox="0 0 24 24">        
        <g>
            <path d="M20.557 5.59453L18.0609 3.10078C17.7562 2.79609 17.3484 2.625 16.9172 2.625C16.4859 2.625 16.0781 2.79375 15.7734 3.10078L13.0852 5.78437C12.7805 6.08906 12.6094 6.49922 12.6094 6.93047C12.6094 7.36406 12.7781 7.76953 13.0852 8.07656L15.1852 10.1789C14.7068 11.2936 14.0194 12.3063 13.1602 13.1625C12.3 14.0273 11.2945 14.7094 10.1789 15.1922L8.07891 13.0898C7.77422 12.7852 7.36641 12.6141 6.93516 12.6141C6.72244 12.6133 6.51172 12.655 6.31532 12.7366C6.11892 12.8183 5.9408 12.9384 5.79141 13.0898L3.10078 15.7734C2.79609 16.0781 2.625 16.4883 2.625 16.9195C2.625 17.3531 2.79375 17.7586 3.10078 18.0656L5.59453 20.5594C6.11484 21.0797 6.83203 21.3773 7.56797 21.3773C7.72031 21.3773 7.86797 21.3656 8.01797 21.3398C11.1211 20.8289 14.2008 19.1766 16.6875 16.6922C19.1719 14.2031 20.8219 11.1234 21.3375 8.01797C21.4852 7.13672 21.1898 6.22969 20.557 5.59453V5.59453ZM19.6758 7.73906C19.2188 10.5023 17.7328 13.2586 15.4945 15.4969C13.2562 17.7352 10.5023 19.2211 7.73906 19.6781C7.39219 19.7367 7.03594 19.6195 6.78281 19.3687L4.33359 16.9195L6.93047 14.3203L9.73828 17.1328L9.75937 17.1539L10.2656 16.9664C11.8006 16.402 13.1945 15.5107 14.3508 14.354C15.507 13.1974 16.3979 11.8032 16.9617 10.268L17.1492 9.76172L14.318 6.93281L16.9148 4.33359L19.3641 6.78281C19.6172 7.03594 19.7344 7.39219 19.6758 7.73906Z"/>
        </g>
    </symbol>    
    <symbol id="ubicacion" viewBox="0 0 24 24">        
        <g>
            <path d="M12 4.47998C11.2445 4.47998 10.5059 4.70402 9.87772 5.12377C9.24952 5.54351 8.7599 6.14012 8.47077 6.83813C8.18165 7.53614 8.106 8.30422 8.25339 9.04523C8.40079 9.78623 8.76461 10.4669 9.29885 11.0011C9.83308 11.5354 10.5137 11.8992 11.2547 12.0466C11.9958 12.194 12.7638 12.1183 13.4618 11.8292C14.1599 11.5401 14.7565 11.0505 15.1762 10.4223C15.596 9.79406 15.82 9.05551 15.82 8.29998C15.82 7.28685 15.4175 6.31522 14.7011 5.59883C13.9848 4.88244 13.0131 4.47998 12 4.47998V4.47998ZM12 10.7866C11.5082 10.7866 11.0274 10.6408 10.6185 10.3676C10.2095 10.0943 9.89082 9.70597 9.70261 9.25159C9.5144 8.79721 9.46516 8.29722 9.56111 7.81486C9.65706 7.33249 9.89389 6.88941 10.2417 6.54164C10.5894 6.19388 11.0325 5.95704 11.5149 5.86109C11.9972 5.76515 12.4972 5.81439 12.9516 6.0026C13.406 6.19081 13.7943 6.50953 14.0676 6.91846C14.3408 7.32739 14.4867 7.80816 14.4867 8.29998C14.4849 8.95833 14.2221 9.58911 13.756 10.054C13.2898 10.5189 12.6583 10.78 12 10.78V10.7866Z" />
            <path d="M12 1.33337C9.92347 1.33511 7.93199 2.1585 6.46054 3.6237C4.98909 5.08891 4.15723 7.07687 4.14667 9.15337C4.14667 12.2667 5.89333 14.8734 7.17333 16.7734L7.40667 17.12C8.68019 18.9658 10.0464 20.7459 11.5 22.4534L12.0067 23.0467L12.5133 22.4534C13.9668 20.7457 15.333 18.9657 16.6067 17.12L16.84 16.7667C18.1133 14.8667 19.86 12.2667 19.86 9.15337C19.8494 7.07571 19.0167 5.08675 17.5438 3.62135C16.0709 2.15596 14.0777 1.33335 12 1.33337V1.33337ZM15.7267 16L15.4867 16.3534C14.34 18.0734 12.82 20 12 20.9534C11.2133 20 9.66 18.0734 8.51333 16.3534L8.28 16C7.1 14.24 5.48 11.8334 5.48 9.12671C5.48 8.27049 5.64865 7.42265 5.97631 6.63161C6.30397 5.84057 6.78423 5.12181 7.38966 4.51637C7.9951 3.91093 8.71386 3.43067 9.5049 3.10301C10.2959 2.77535 11.1438 2.60671 12 2.60671C12.8562 2.60671 13.7041 2.77535 14.4951 3.10301C15.2861 3.43067 16.0049 3.91093 16.6103 4.51637C17.2158 5.12181 17.696 5.84057 18.0237 6.63161C18.3514 7.42265 18.52 8.27049 18.52 9.12671C18.52 11.86 16.9067 14.2667 15.7267 16V16Z" />
        </g>
    </symbol>
    <symbol id="id" viewBox="0 0 24 24">        
        <g>
            <path d="M16.5 9C16.8978 9 17.2794 8.84196 17.5607 8.56066C17.842 8.27936 18 7.89783 18 7.5C18 7.10218 17.842 6.72065 17.5607 6.43934C17.2794 6.15804 16.8978 6 16.5 6C16.1022 6 15.7206 6.15804 15.4393 6.43934C15.158 6.72065 15 7.10218 15 7.5C15 7.89783 15.158 8.27936 15.4393 8.56066C15.7206 8.84196 16.1022 9 16.5 9V9ZM11.25 18V17.25H12.75C12.9489 17.25 13.1397 17.171 13.2803 17.0303C13.421 16.8897 13.5 16.6989 13.5 16.5V15H15C16.2599 14.9997 17.4877 14.6028 18.5094 13.8656C19.5311 13.1284 20.2948 12.0882 20.6923 10.8927C21.0897 9.69709 21.1007 8.40674 20.7237 7.20457C20.3467 6.0024 19.6008 4.94941 18.5918 4.1949C17.5828 3.44039 16.3619 3.02264 15.1022 3.00089C13.8425 2.97915 12.6079 3.3545 11.5734 4.07373C10.539 4.79296 9.75721 5.81958 9.33892 7.00802C8.92064 8.19646 8.88708 9.48642 9.243 10.695L3.438 16.5C3.15723 16.7815 2.99969 17.1629 3 17.5605V19.5C3 19.8978 3.15804 20.2794 3.43934 20.5607C3.72064 20.842 4.10218 21 4.5 21H7.5C7.89783 21 8.27936 20.842 8.56066 20.5607C8.84196 20.2794 9 19.8978 9 19.5V18.75H10.5C10.6989 18.75 10.8897 18.671 11.0303 18.5303C11.171 18.3897 11.25 18.1989 11.25 18ZM10.5 9C10.5 8.10998 10.7639 7.23996 11.2584 6.49993C11.7529 5.75991 12.4557 5.18314 13.2779 4.84254C14.1002 4.50195 15.005 4.41283 15.8779 4.58647C16.7508 4.7601 17.5526 5.18868 18.182 5.81802C18.8113 6.44736 19.2399 7.24918 19.4135 8.12209C19.5872 8.99501 19.4981 9.89981 19.1575 10.7221C18.8169 11.5443 18.2401 12.2471 17.5001 12.7416C16.76 13.2361 15.89 13.5 15 13.5H12.75C12.5511 13.5 12.3603 13.579 12.2197 13.7197C12.079 13.8603 12 14.0511 12 14.25V15.75H10.5C10.3011 15.75 10.1103 15.829 9.96967 15.9697C9.82902 16.1103 9.75 16.3011 9.75 16.5V17.25H8.25C8.05109 17.25 7.86032 17.329 7.71967 17.4697C7.57902 17.6103 7.5 17.8011 7.5 18V19.5H4.5V17.5605L10.6335 11.427C10.7363 11.3243 10.8071 11.1939 10.8372 11.0517C10.8673 10.9095 10.8554 10.7616 10.803 10.626C10.608 10.122 10.5 9.576 10.5 9Z"/>
        </g>
    </symbol>
    <symbol id="numero" viewBox="0 0 24 24">        
        <g>
            <path d="M10.987 2.89006C11.0241 2.6946 10.9821 2.49239 10.8701 2.32792C10.7582 2.16345 10.5855 2.05019 10.39 2.01306C10.1945 1.97593 9.99233 2.01797 9.82786 2.12993C9.66339 2.24189 9.55013 2.4146 9.513 2.61006L8.494 7.99906L3.75 8.00006C3.55109 8.00006 3.36032 8.07908 3.21967 8.21973C3.07902 8.36038 3 8.55115 3 8.75006C3 8.94897 3.07902 9.13974 3.21967 9.28039C3.36032 9.42104 3.55109 9.50006 3.75 9.50006L8.21 9.49806L7.264 14.4981L2.75 14.5001C2.55109 14.5001 2.36032 14.5791 2.21967 14.7197C2.07902 14.8604 2 15.0511 2 15.2501C2 15.449 2.07902 15.6397 2.21967 15.7804C2.36032 15.921 2.55109 16.0001 2.75 16.0001L6.98 15.9981L6.013 21.1141C5.99429 21.211 5.99491 21.3107 6.01483 21.4075C6.03476 21.5042 6.07358 21.596 6.12909 21.6777C6.1846 21.7594 6.25569 21.8293 6.33829 21.8834C6.42089 21.9376 6.51337 21.9749 6.61041 21.9932C6.70746 22.0115 6.80717 22.0104 6.90381 21.9901C7.00045 21.9698 7.09213 21.9306 7.17357 21.8747C7.25502 21.8189 7.32463 21.7475 7.37842 21.6646C7.43221 21.5818 7.46911 21.4892 7.487 21.3921L8.507 15.9971L13.981 15.9951L13.013 21.1141C12.9943 21.211 12.9949 21.3107 13.0148 21.4075C13.0348 21.5042 13.0736 21.596 13.1291 21.6777C13.1846 21.7594 13.2557 21.8293 13.3383 21.8834C13.4209 21.9376 13.5134 21.9749 13.6104 21.9932C13.7075 22.0115 13.8072 22.0104 13.9038 21.9901C14.0004 21.9698 14.0921 21.9306 14.1736 21.8747C14.255 21.8189 14.3246 21.7475 14.3784 21.6646C14.4322 21.5818 14.4691 21.4892 14.487 21.3921L15.508 15.9941L20.25 15.9921C20.4489 15.9921 20.6397 15.913 20.7803 15.7724C20.921 15.6317 21 15.441 21 15.2421C21 15.0431 20.921 14.8524 20.7803 14.7117C20.6397 14.5711 20.4489 14.4921 20.25 14.4921L15.792 14.4941L16.738 9.49406L21.25 9.49206C21.4489 9.49206 21.6397 9.41304 21.7803 9.27239C21.921 9.13174 22 8.94097 22 8.74206C22 8.54315 21.921 8.35238 21.7803 8.21173C21.6397 8.07108 21.4489 7.99206 21.25 7.99206L17.021 7.99406L17.987 2.89006C18.0241 2.6946 17.9821 2.49239 17.8701 2.32792C17.7582 2.16345 17.5855 2.05019 17.39 2.01306C17.1945 1.97593 16.9923 2.01797 16.8279 2.12993C16.6634 2.24189 16.5501 2.4146 16.513 2.61006L15.495 7.99506L10.021 7.99706L10.987 2.89006V2.89006ZM9.737 9.49806L15.211 9.49506L14.265 14.4951L8.791 14.4971L9.737 9.49706V9.49806Z"/>
        </g>
    </symbol>
</svg>