<svg width="231" height="256" viewBox="0 0 231 256" fill="none" xmlns="http://www.w3.org/2000/svg">
<path d="M127 191H103V179H109V143H103V149H91V131H139V149H127V143H121V179H127V191Z" fill="#F49300"/>
<path d="M109 121H85V109H91V73H85V61H103L115 85L127 61H145V73H139V109H145V121H121V109H127V85L115 109L103 85V109H109V121Z" fill="#1976D2"/>
<path d="M76.8 256H153.6L204.8 204.8V51.2H230.4V0H128V51.2H153.6V179.2L128 204.8H102.4L76.8 179.2V51.2H102.4V0H0V51.2H25.6V204.8L76.8 256Z" fill="#333333"/>
</svg>
